<svg xmlns="http://www.w3.org/2000/svg" xmlns:xlink="http://www.w3.org/1999/xlink" width="80" zoomAndPan="magnify" viewBox="0 0 60 60" height="80" preserveAspectRatio="xMidYMid meet" version="1.0"><defs><clipPath id="f341cc9a24"><path d="M 0 2.136719 L 60 2.136719 L 60 57.636719 L 0 57.636719 Z M 0 2.136719 " clip-rule="nonzero"/></clipPath></defs><g clip-path="url(#f341cc9a24)"><path fill="#ffffff" d="M 6.765625 19.167969 C 6.347656 18.820312 5.984375 18.324219 5.660156 17.777344 C 5.121094 16.863281 4.703125 15.800781 4.335938 15.042969 C 3.960938 14.277344 3.519531 13.582031 3.019531 12.898438 C 2.261719 11.855469 1.425781 10.878906 0.628906 9.871094 C 0.570312 9.796875 0.25 9.492188 0.109375 9.261719 C 0.0546875 9.175781 0.0234375 9.09375 0.015625 9.027344 C 0 8.941406 0.0234375 8.867188 0.0664062 8.8125 C 0.128906 8.730469 0.222656 8.671875 0.351562 8.644531 C 0.480469 8.617188 0.65625 8.621094 0.855469 8.65625 C 1.535156 8.777344 2.527344 9.226562 2.769531 9.355469 C 3.886719 9.953125 5.453125 10.792969 6.75 11.789062 C 7.632812 12.46875 8.386719 13.222656 8.800781 14.015625 C 8.835938 14.082031 8.828125 14.15625 8.792969 14.210938 C 8.816406 14.199219 8.835938 14.1875 8.851562 14.175781 C 8.855469 14.171875 8.863281 14.167969 8.867188 14.164062 C 8.882812 13.980469 8.851562 13.808594 8.839844 13.648438 C 8.824219 13.46875 8.832031 13.300781 8.902344 13.140625 C 8.976562 12.984375 9.117188 12.832031 9.386719 12.699219 C 9.882812 12.457031 10.5625 12.265625 11.121094 12.3125 C 11.265625 12.324219 11.539062 12.425781 11.777344 12.484375 C 11.824219 12.492188 11.867188 12.503906 11.910156 12.507812 C 11.902344 12.367188 11.894531 12.179688 11.898438 12.164062 C 11.949219 11.703125 12.195312 11.269531 12.621094 11.054688 C 12.875 10.925781 13.199219 10.914062 13.527344 10.988281 C 13.980469 11.09375 14.441406 11.351562 14.699219 11.597656 C 14.871094 11.761719 15.027344 11.9375 15.171875 12.121094 C 15.269531 11.558594 15.664062 11.015625 16.167969 10.679688 C 16.820312 10.25 17.640625 10.167969 18.242188 10.792969 C 18.40625 10.964844 18.53125 11.175781 18.621094 11.414062 C 18.925781 11.078125 19.359375 10.746094 19.808594 10.621094 C 20.214844 10.507812 20.632812 10.554688 20.980469 10.882812 C 21.1875 11.078125 21.289062 11.339844 21.351562 11.609375 C 21.351562 11.617188 21.363281 11.683594 21.371094 11.75 C 21.566406 11.757812 21.710938 11.738281 21.84375 11.734375 C 22.140625 11.722656 22.398438 11.761719 22.914062 12.171875 C 23.246094 12.4375 23.445312 13.023438 23.496094 13.695312 C 23.566406 14.53125 23.421875 15.492188 23.132812 16.050781 C 23.621094 15.9375 24.1875 15.851562 24.714844 15.863281 C 24.851562 15.867188 24.980469 15.875 25.109375 15.890625 C 24.976562 14.796875 24.988281 14.125 24.988281 13.003906 C 24.984375 12.136719 25.113281 11.273438 25.152344 10.410156 C 25.210938 9.097656 25.167969 7.785156 25.140625 6.472656 C 25.121094 5.46875 25.15625 4.449219 25.03125 3.449219 C 25.019531 3.339844 24.902344 2.9375 24.859375 2.652344 C 24.835938 2.476562 24.847656 2.332031 24.882812 2.261719 C 24.910156 2.203125 24.953125 2.167969 25.011719 2.152344 C 25.046875 2.144531 25.117188 2.136719 25.195312 2.1875 C 25.25 2.222656 25.359375 2.332031 25.480469 2.476562 C 25.730469 2.769531 26.058594 3.203125 26.089844 3.25 C 26.800781 4.296875 27.332031 5.390625 27.625 6.625 C 28.175781 8.945312 29.109375 12.828125 28.765625 15.417969 C 28.980469 15.300781 29.261719 15.210938 29.5625 15.152344 C 29.8125 15.105469 30.074219 15.078125 30.324219 15.066406 C 29.804688 14.398438 29.34375 13.628906 29.316406 12.765625 C 29.308594 12.484375 29.339844 12.203125 29.410156 11.933594 C 29.574219 11.28125 29.839844 10.941406 30.121094 10.800781 C 30.269531 10.726562 30.429688 10.703125 30.59375 10.722656 C 30.765625 9.8125 31.460938 8.835938 32.378906 8.542969 C 32.664062 8.453125 32.984375 8.445312 33.25 8.601562 C 33.296875 8.628906 33.355469 8.679688 33.410156 8.730469 C 33.457031 8.640625 33.496094 8.550781 33.539062 8.464844 C 33.640625 8.277344 33.757812 8.105469 33.96875 7.960938 C 34.390625 7.664062 34.882812 7.664062 35.359375 7.832031 C 36.011719 8.0625 36.628906 8.625 36.953125 9.101562 C 37.167969 8.335938 37.695312 7.5625 38.386719 7.183594 C 38.808594 6.953125 39.253906 6.902344 39.632812 7.027344 C 39.941406 7.128906 40.210938 7.34375 40.386719 7.675781 C 40.636719 7.457031 40.914062 7.257812 41.199219 7.121094 C 41.558594 6.953125 41.933594 6.894531 42.28125 7.015625 C 42.515625 7.097656 42.738281 7.261719 42.9375 7.542969 C 43.09375 7.757812 43.199219 8.035156 43.195312 8.304688 C 43.191406 8.335938 43.1875 8.378906 43.179688 8.425781 C 43.273438 8.390625 43.367188 8.34375 43.46875 8.308594 C 43.734375 8.210938 44.039062 8.160156 44.433594 8.386719 C 45 8.714844 45.46875 9.550781 45.652344 10.433594 C 45.796875 11.113281 45.769531 11.816406 45.523438 12.335938 C 45.773438 12.273438 46.019531 12.222656 46.265625 12.195312 C 47.121094 12.089844 47.921875 12.222656 48.460938 12.761719 C 48.707031 13.003906 48.722656 13.328125 48.632812 13.644531 C 48.609375 13.738281 48.574219 13.828125 48.535156 13.914062 C 48.652344 13.96875 48.777344 13.996094 48.902344 14.035156 C 49.136719 14.105469 49.363281 14.191406 49.535156 14.398438 C 49.777344 14.683594 49.871094 14.964844 49.863281 15.238281 C 49.859375 15.503906 49.753906 15.761719 49.578125 16 C 49.421875 16.214844 49.210938 16.410156 48.972656 16.582031 C 49.902344 17.390625 50.25 18.867188 49.6875 20.003906 C 49.445312 20.496094 48.863281 21.089844 48.226562 21.398438 C 47.957031 21.53125 47.679688 21.609375 47.410156 21.617188 C 47.667969 22.0625 47.8125 22.617188 47.96875 23.097656 C 48.195312 23.78125 48.40625 24.488281 48.167969 25.207031 C 48.019531 25.652344 47.8125 26.132812 47.367188 26.363281 C 47.167969 26.464844 47.019531 26.492188 46.828125 26.441406 C 46.839844 26.480469 46.855469 26.519531 46.867188 26.5625 C 46.933594 26.753906 46.972656 26.953125 46.902344 27.171875 C 46.800781 27.476562 46.523438 27.707031 46.234375 27.8125 C 45.871094 27.945312 45.503906 27.957031 45.148438 27.878906 C 45.09375 28.09375 44.996094 28.304688 44.824219 28.449219 C 44.527344 28.695312 43.945312 28.792969 43.300781 28.765625 C 42.375 28.730469 41.332031 28.449219 40.945312 28.136719 C 40.230469 27.554688 39.773438 26.9375 39.46875 26.28125 C 39.476562 26.410156 39.492188 26.542969 39.484375 26.675781 C 39.457031 27.105469 39.398438 27.6875 39.234375 28.199219 C 39.140625 28.496094 39.011719 28.769531 38.839844 28.980469 C 40.292969 28.984375 41.128906 30.640625 40.996094 32.089844 C 40.953125 32.535156 40.820312 32.90625 40.648438 33.296875 C 40.773438 33.246094 40.902344 33.207031 41.035156 33.167969 C 41 33.113281 40.996094 33.042969 41.023438 32.980469 C 43.125 28.585938 48.578125 26.265625 53.226562 26.273438 C 55.011719 26.277344 56.496094 26.667969 57.949219 27.71875 C 58.382812 28.035156 58.738281 28.464844 59.222656 28.703125 C 59.335938 28.757812 59.492188 28.816406 59.613281 28.855469 C 59.679688 28.875 59.855469 28.910156 59.878906 28.921875 C 59.996094 28.976562 59.996094 29.078125 59.992188 29.117188 C 59.988281 29.140625 59.96875 29.296875 59.78125 29.296875 C 57.871094 29.285156 55.492188 28.863281 53.699219 29.710938 C 52.109375 30.464844 50.738281 31.742188 49.3125 32.910156 C 47.972656 34.003906 46.589844 35.007812 44.945312 35.441406 C 45.261719 35.726562 45.460938 36.160156 45.398438 36.566406 C 45.324219 37.066406 45.039062 37.457031 44.628906 37.753906 C 46.867188 39.441406 45.242188 42.515625 42.796875 42.59375 C 42.898438 42.734375 42.984375 42.886719 43.050781 43.046875 C 43.304688 43.660156 43.523438 44.550781 43.515625 45.382812 C 43.515625 45.960938 43.40625 46.507812 43.144531 46.925781 C 42.933594 47.261719 42.550781 47.433594 42.167969 47.464844 C 42.117188 47.605469 42.101562 47.738281 42.074219 47.867188 C 42.027344 48.074219 41.953125 48.273438 41.738281 48.476562 C 41.421875 48.78125 41.019531 48.832031 40.597656 48.722656 C 40.597656 49.132812 40.375 49.433594 40.054688 49.628906 C 39.71875 49.832031 39.273438 49.910156 38.890625 49.867188 C 38.359375 49.8125 37.566406 49.464844 37.128906 49.148438 C 36.410156 48.640625 35.824219 47.992188 35.359375 47.261719 C 35.296875 48.632812 34.6875 49.800781 33.4375 50.65625 C 32.949219 50.992188 32.238281 51.167969 31.621094 51.082031 C 31.0625 51.007812 30.578125 50.722656 30.371094 50.171875 C 29.933594 50.464844 29.472656 50.519531 29.050781 50.128906 C 28.820312 49.914062 28.765625 49.699219 28.746094 49.480469 C 28.738281 49.363281 28.746094 49.242188 28.714844 49.117188 C 28.65625 49.121094 28.59375 49.125 28.585938 49.125 C 28.296875 49.144531 28.027344 49.117188 27.761719 48.984375 C 26.972656 48.601562 26.613281 47.941406 26.460938 47.09375 C 26.386719 46.703125 26.441406 46.339844 26.5625 46.003906 C 24.597656 48.523438 24.140625 51.769531 23.847656 54.933594 C 24.136719 54.308594 24.496094 53.832031 24.917969 53.46875 C 25.6875 52.804688 26.652344 52.519531 27.75 52.429688 C 29.15625 52.308594 30.78125 52.515625 32.449219 52.601562 C 33.5 52.660156 35.195312 52.441406 36.144531 52.644531 C 36.335938 52.6875 36.324219 52.851562 36.320312 52.871094 C 36.316406 52.90625 36.292969 53.015625 36.152344 53.039062 C 36.113281 53.042969 35.839844 53.023438 35.734375 53.027344 C 35.355469 53.035156 34.976562 53.078125 34.605469 53.136719 C 33.484375 53.304688 32.453125 53.796875 31.382812 54.144531 C 29.78125 54.667969 28.832031 55.734375 27.804688 56.511719 C 26.714844 57.332031 25.542969 57.859375 23.519531 57.214844 C 23.511719 57.214844 23.507812 57.210938 23.5 57.210938 C 23.5 57.207031 23.496094 57.207031 23.496094 57.207031 C 23.480469 57.210938 23.464844 57.210938 23.449219 57.207031 C 23.339844 57.199219 23.261719 57.105469 23.273438 56.996094 C 23.277344 56.929688 23.285156 56.863281 23.292969 56.796875 C 23.292969 56.796875 23.292969 56.792969 23.292969 56.792969 C 23.691406 52.410156 23.917969 47.566406 27.535156 44.414062 C 27.542969 44.398438 27.554688 44.382812 27.566406 44.367188 C 27.339844 44.414062 27.121094 44.453125 26.921875 44.476562 C 26.796875 44.492188 26.664062 44.503906 26.527344 44.515625 C 24.726562 46.070312 22.699219 50.3125 22.445312 52.769531 C 22.300781 54.148438 22.085938 55.71875 22.210938 57.058594 C 22.222656 57.164062 22.140625 57.257812 22.035156 57.269531 C 21.929688 57.277344 21.835938 57.199219 21.824219 57.09375 C 21.699219 55.730469 21.914062 54.132812 22.058594 52.726562 C 22.304688 50.347656 24.175781 46.339844 25.941406 44.535156 C 25.523438 44.527344 25.105469 44.464844 24.765625 44.285156 C 24.429688 44.105469 24.082031 43.71875 23.863281 43.410156 C 23.683594 43.15625 23.476562 42.910156 23.367188 42.613281 C 23.199219 42.164062 23.199219 41.792969 23.308594 41.488281 C 23.328125 41.433594 23.351562 41.382812 23.375 41.332031 C 23.144531 41.292969 22.96875 41.183594 22.847656 41.035156 C 22.628906 40.765625 22.589844 40.34375 22.761719 39.949219 C 22.804688 39.847656 22.878906 39.75 22.949219 39.652344 C 22.988281 39.601562 23.027344 39.550781 23.054688 39.496094 C 23.03125 39.464844 22.988281 39.40625 22.960938 39.367188 C 22.878906 39.257812 22.808594 39.128906 22.804688 38.976562 C 22.796875 38.828125 22.847656 38.648438 23.039062 38.445312 C 23.164062 38.3125 23.3125 38.253906 23.46875 38.21875 C 23.519531 38.207031 23.574219 38.199219 23.625 38.1875 C 23.59375 38.066406 23.574219 37.9375 23.566406 37.8125 C 23.546875 37.484375 23.664062 37.242188 23.898438 37.011719 C 24.449219 36.480469 25.113281 36.203125 25.824219 36.09375 C 25.097656 35.386719 24.632812 34.644531 24.640625 33.539062 C 24.644531 33.082031 24.90625 32.511719 25.308594 32.175781 C 25.5 32.015625 25.71875 31.910156 25.953125 31.878906 C 26.089844 30.851562 27.09375 29.929688 28.078125 29.75 C 28.214844 29.726562 28.359375 29.757812 28.488281 29.804688 C 28.542969 29.824219 28.605469 29.851562 28.648438 29.871094 C 28.675781 29.835938 28.730469 29.769531 28.765625 29.714844 C 28.910156 29.476562 29.082031 29.175781 29.277344 29.066406 C 29.683594 28.835938 30.125 28.816406 30.5625 28.921875 C 31.175781 29.070312 31.773438 29.472656 32.210938 29.839844 C 32.285156 29.902344 32.359375 29.96875 32.425781 30.039062 C 32.46875 29.515625 32.726562 28.921875 33.214844 28.671875 C 33.195312 28.644531 33.179688 28.613281 33.164062 28.578125 C 33.117188 28.484375 33.09375 28.3125 33.089844 28.125 C 33.085938 28.007812 33.085938 27.855469 33.085938 27.738281 C 32.914062 27.78125 32.734375 27.796875 32.558594 27.789062 C 32.035156 27.761719 31.621094 27.433594 31.234375 27.117188 C 30.921875 26.859375 30.769531 26.46875 30.730469 26.039062 C 30.679688 25.4375 30.855469 24.761719 31.089844 24.324219 C 31.292969 23.945312 31.65625 23.546875 32.039062 23.253906 C 31.84375 23.285156 31.640625 23.308594 31.429688 23.324219 C 30.664062 23.382812 29.730469 23.339844 29.085938 22.871094 C 29.007812 22.8125 28.933594 22.753906 28.863281 22.695312 C 28.851562 22.722656 28.832031 22.75 28.804688 22.773438 C 27.558594 23.792969 26.515625 25.273438 26.261719 26.890625 C 26.324219 27.191406 26.359375 27.5 26.367188 27.800781 C 26.375 28.523438 26.191406 29.21875 25.738281 29.773438 C 25.605469 29.9375 25.441406 30.015625 25.265625 30.078125 C 25.140625 30.125 25.011719 30.160156 24.898438 30.25 C 24.875 30.269531 24.871094 30.304688 24.859375 30.339844 C 24.835938 30.417969 24.816406 30.511719 24.792969 30.605469 C 24.738281 30.824219 24.644531 31.054688 24.433594 31.21875 C 23.679688 34.304688 22.8125 38.3125 22.71875 39.34375 C 22.71875 39.347656 22.714844 39.355469 22.714844 39.363281 C 22.714844 39.371094 22.710938 39.378906 22.710938 39.386719 C 21.863281 42.335938 20.609375 55.417969 20.386719 57.273438 C 20.375 57.378906 20.28125 57.457031 20.171875 57.441406 C 20.066406 57.429688 19.992188 57.335938 20.003906 57.226562 C 20.222656 55.367188 21.484375 42.28125 22.332031 39.292969 C 22.433594 38.265625 23.246094 34.46875 23.984375 31.425781 C 23.863281 31.453125 23.742188 31.464844 23.621094 31.46875 C 23.433594 31.476562 23.246094 31.46875 23.054688 31.523438 C 23.042969 31.542969 23.023438 31.570312 23.007812 31.597656 C 23.007812 31.601562 23.007812 31.605469 23.007812 31.609375 C 22.890625 33.253906 22.222656 35.269531 21.453125 39.6875 C 21.15625 41.390625 20.386719 45.363281 20.363281 47.542969 C 20.371094 47.78125 20.378906 48.003906 20.386719 48.195312 C 20.386719 48.296875 20.3125 48.386719 20.207031 48.394531 C 20.203125 48.394531 20.203125 48.394531 20.199219 48.394531 C 20.09375 48.398438 20.007812 48.320312 19.996094 48.21875 C 19.980469 48.03125 19.976562 47.816406 19.976562 47.578125 C 19.933594 46.152344 19.886719 44.007812 19.851562 42.859375 C 19.753906 39.328125 18.648438 33.726562 17.953125 30.660156 C 17.691406 30.414062 17.460938 30.148438 17.273438 29.878906 C 17.277344 30.308594 17.253906 30.75 17.148438 31.15625 C 17.722656 33.078125 18.105469 35.667969 18.390625 37.628906 C 18.578125 38.921875 18.738281 40.222656 18.875 41.527344 C 18.875 41.527344 18.875 41.527344 18.875 41.53125 C 19.226562 44.945312 19.398438 48.382812 19.386719 51.8125 C 19.382812 53.367188 19.402344 54.933594 19.332031 56.488281 C 19.359375 56.796875 19.34375 57.070312 19.285156 57.300781 C 19.277344 57.320312 19.269531 57.339844 19.257812 57.359375 C 19.253906 57.363281 19.253906 57.367188 19.25 57.371094 C 19.230469 57.398438 19.203125 57.417969 19.167969 57.433594 C 19.160156 57.4375 19.15625 57.4375 19.152344 57.4375 C 19.128906 57.445312 19.105469 57.449219 19.082031 57.445312 C 19.046875 57.445312 19.015625 57.433594 18.988281 57.414062 C 18.980469 57.410156 18.972656 57.40625 18.96875 57.402344 L 18.96875 57.398438 C 18.679688 57.148438 18.375 57.027344 18.003906 56.878906 C 17.605469 56.714844 17.132812 56.523438 16.523438 56.140625 C 14.847656 55.078125 13.839844 53.066406 13.058594 51.308594 C 12.269531 49.535156 11.570312 47.746094 11 45.886719 C 10.488281 44.226562 9.835938 42.589844 9.152344 40.988281 C 8.949219 40.515625 8.75 40.039062 8.546875 39.566406 C 8.457031 39.367188 8.355469 39.179688 8.257812 38.984375 C 8.234375 38.933594 8.167969 38.832031 8.140625 38.777344 C 8.117188 38.730469 8.113281 38.6875 8.109375 38.664062 C 8.109375 38.558594 8.167969 38.5 8.242188 38.476562 C 8.273438 38.464844 8.339844 38.445312 8.425781 38.496094 C 9.574219 39.183594 10.433594 40.542969 11.265625 41.566406 C 13.585938 44.417969 15.847656 47.457031 17.300781 50.835938 C 17.664062 51.683594 18.507812 53.394531 18.988281 54.917969 C 19.003906 53.882812 18.996094 52.84375 19 51.8125 C 19.007812 49.425781 18.925781 47.035156 18.757812 44.652344 C 18.742188 44.640625 18.726562 44.628906 18.714844 44.617188 C 18.351562 44.195312 17.867188 43.832031 17.398438 43.460938 C 16.902344 43.066406 16.421875 42.664062 16.082031 42.183594 C 14.945312 40.578125 14.183594 38.738281 13.34375 36.972656 C 12.964844 36.175781 12.535156 35.3125 12 34.605469 C 11.71875 34.234375 11.363281 33.941406 11.101562 33.550781 C 11.082031 33.519531 11.023438 33.46875 11 33.433594 C 10.96875 33.390625 10.960938 33.347656 10.957031 33.316406 C 10.957031 33.265625 10.96875 33.222656 10.996094 33.183594 C 11.019531 33.148438 11.0625 33.109375 11.136719 33.097656 C 11.550781 33.03125 12.003906 33.167969 12.445312 33.398438 C 13.054688 33.71875 13.648438 34.214844 14.070312 34.496094 C 15.886719 35.695312 17.363281 37.207031 18.199219 39.09375 C 18.136719 38.625 18.074219 38.152344 18.003906 37.683594 C 17.746094 35.90625 17.410156 33.609375 16.917969 31.773438 C 16.644531 32.34375 16.199219 32.921875 15.660156 33.285156 C 15.15625 33.625 14.574219 33.777344 13.96875 33.585938 C 13.5625 33.457031 13.339844 33.203125 13.152344 32.839844 C 13.140625 32.816406 13.078125 32.6875 13.035156 32.597656 C 12.613281 32.695312 12.222656 32.777344 11.835938 32.480469 C 11.585938 32.292969 11.46875 32.050781 11.367188 31.800781 C 11.292969 31.625 11.234375 31.445312 11.109375 31.300781 C 10.90625 31.269531 10.3125 31.183594 10.230469 31.164062 C 9.441406 30.960938 9.003906 30.46875 8.765625 29.707031 C 8.628906 29.277344 8.71875 28.78125 8.929688 28.300781 C 9.164062 27.765625 9.546875 27.25 9.90625 26.871094 C 9.863281 26.875 9.824219 26.878906 9.78125 26.882812 C 8.640625 27 7.324219 26.855469 6.492188 25.972656 C 6.1875 25.652344 6.109375 25.285156 6.089844 24.902344 C 6.070312 24.578125 6.097656 24.246094 6.007812 23.925781 C 5.976562 23.828125 5.902344 23.742188 5.832031 23.648438 C 5.730469 23.519531 5.628906 23.382812 5.578125 23.234375 C 5.5 23.011719 5.546875 22.800781 5.617188 22.601562 C 5.664062 22.46875 5.726562 22.34375 5.710938 22.222656 C 5.699219 22.128906 5.640625 22.058594 5.59375 21.976562 C 5.519531 21.84375 5.460938 21.695312 5.476562 21.492188 C 5.503906 21.136719 5.683594 20.972656 5.875 20.851562 C 5.949219 20.808594 6.023438 20.769531 6.085938 20.726562 C 6.121094 20.707031 6.152344 20.6875 6.167969 20.652344 C 6.230469 20.507812 6.242188 20.34375 6.265625 20.175781 C 6.296875 19.964844 6.335938 19.753906 6.453125 19.5625 C 6.535156 19.417969 6.644531 19.289062 6.765625 19.167969 Z M 8.644531 14.300781 C 8.570312 14.308594 8.496094 14.269531 8.457031 14.195312 C 8.066406 13.445312 7.347656 12.738281 6.515625 12.097656 C 5.234375 11.113281 3.6875 10.289062 2.585938 9.699219 C 2.359375 9.578125 1.429688 9.152344 0.789062 9.039062 C 0.667969 9.019531 0.558594 9.007812 0.472656 9.019531 C 0.453125 9.019531 0.4375 9.019531 0.421875 9.023438 C 0.441406 9.058594 0.46875 9.105469 0.496094 9.140625 C 0.652344 9.34375 0.886719 9.570312 0.933594 9.628906 C 1.734375 10.644531 2.570312 11.625 3.332031 12.667969 C 3.847656 13.375 4.300781 14.085938 4.683594 14.871094 C 5.046875 15.621094 5.460938 16.675781 5.996094 17.582031 C 6.308594 18.113281 6.660156 18.59375 7.074219 18.917969 C 7.191406 18.835938 7.3125 18.765625 7.445312 18.699219 C 7.777344 18.527344 8.148438 18.40625 8.511719 18.324219 C 8.320312 18.144531 8.082031 18.015625 7.929688 17.792969 C 7.621094 17.355469 7.445312 16.808594 7.4375 16.261719 C 7.078125 14.9375 6.492188 14.296875 5.800781 13.628906 C 5.320312 13.15625 4.785156 12.671875 4.238281 11.953125 C 4.171875 11.867188 4.1875 11.746094 4.273438 11.679688 C 4.359375 11.617188 4.480469 11.632812 4.546875 11.71875 C 5.078125 12.417969 5.601562 12.890625 6.074219 13.347656 C 6.667969 13.925781 7.1875 14.488281 7.566406 15.425781 C 7.636719 15.230469 7.734375 15.039062 7.863281 14.867188 C 7.9375 14.765625 8.109375 14.636719 8.296875 14.515625 C 8.40625 14.449219 8.535156 14.367188 8.644531 14.300781 Z M 25.5 15.972656 C 25.796875 16.058594 26.050781 16.199219 26.230469 16.402344 C 26.359375 16.554688 26.390625 16.765625 26.359375 16.980469 C 26.335938 17.152344 26.261719 17.367188 26.222656 17.480469 C 26.292969 17.53125 26.375 17.566406 26.46875 17.59375 C 26.476562 17.59375 26.484375 17.597656 26.492188 17.601562 C 26.621094 16.144531 26.785156 14.730469 26.703125 13.253906 C 26.636719 12 26.371094 10.773438 26.257812 9.523438 C 26.246094 9.417969 26.328125 9.324219 26.433594 9.3125 C 26.539062 9.304688 26.632812 9.382812 26.644531 9.488281 C 26.757812 10.742188 27.023438 11.972656 27.09375 13.234375 C 27.171875 14.746094 27.007812 16.195312 26.875 17.6875 C 26.910156 17.695312 26.945312 17.707031 26.980469 17.714844 C 27.117188 17.746094 27.25 17.785156 27.375 17.84375 C 27.421875 17.640625 27.542969 17.46875 27.6875 17.3125 C 27.871094 17.117188 28.101562 16.945312 28.21875 16.730469 C 28.230469 16.710938 28.226562 16.683594 28.226562 16.65625 C 28.226562 16.597656 28.21875 16.53125 28.210938 16.460938 C 28.195312 16.296875 28.195312 16.113281 28.28125 15.921875 C 28.871094 13.410156 27.832031 9.171875 27.246094 6.714844 C 26.964844 5.527344 26.453125 4.472656 25.769531 3.46875 C 25.746094 3.429688 25.511719 3.121094 25.292969 2.855469 C 25.34375 3.089844 25.40625 3.324219 25.417969 3.402344 C 25.542969 4.414062 25.507812 5.445312 25.527344 6.464844 C 25.558594 7.785156 25.601562 9.109375 25.539062 10.425781 C 25.5 11.285156 25.375 12.144531 25.375 13.003906 C 25.378906 14.128906 25.363281 14.796875 25.503906 15.910156 C 25.503906 15.929688 25.503906 15.953125 25.5 15.972656 Z M 38.058594 29.128906 C 38.210938 29.039062 38.34375 28.9375 38.453125 28.835938 C 38.640625 28.652344 38.769531 28.378906 38.863281 28.082031 C 39.015625 27.601562 39.074219 27.054688 39.097656 26.652344 C 39.113281 26.402344 39.054688 26.15625 39.097656 25.90625 C 39.113281 25.824219 39.179688 25.765625 39.257812 25.75 C 39.128906 25.375 39.039062 24.984375 38.964844 24.585938 C 38.820312 23.78125 38.75 22.929688 38.59375 22.023438 C 38.449219 22.015625 38.308594 21.996094 38.171875 21.96875 C 38.160156 23.015625 38.09375 24.039062 37.757812 25.039062 C 37.722656 25.140625 37.613281 25.195312 37.511719 25.160156 C 37.410156 25.128906 37.355469 25.019531 37.390625 24.917969 C 37.722656 23.921875 37.777344 22.898438 37.785156 21.859375 C 37.628906 21.800781 37.484375 21.730469 37.355469 21.644531 C 37.34375 21.636719 37.332031 21.628906 37.320312 21.621094 C 36.902344 22.5625 36.457031 23.222656 35.742188 23.984375 C 35.667969 24.0625 35.546875 24.066406 35.46875 23.992188 C 35.390625 23.917969 35.386719 23.792969 35.460938 23.714844 C 36.160156 22.972656 36.589844 22.324219 37 21.386719 C 37 21.378906 37.003906 21.375 37.007812 21.367188 C 36.757812 21.125 36.5625 20.828125 36.421875 20.503906 C 36.164062 20.902344 35.800781 21.183594 35.445312 21.5 C 34.5625 22.28125 33.75 22.816406 32.722656 23.101562 C 32.746094 23.1875 32.710938 23.277344 32.632812 23.324219 C 32.179688 23.574219 31.671875 24.054688 31.429688 24.507812 C 31.226562 24.886719 31.070312 25.480469 31.117188 26.007812 C 31.144531 26.328125 31.25 26.625 31.480469 26.816406 C 31.804688 27.082031 32.140625 27.378906 32.574219 27.398438 C 32.726562 27.40625 32.875 27.394531 33.023438 27.355469 C 33.042969 27.347656 33.207031 27.296875 33.25 27.292969 C 33.339844 27.289062 33.386719 27.335938 33.410156 27.367188 C 33.433594 27.394531 33.46875 27.472656 33.476562 27.589844 C 33.480469 27.726562 33.472656 27.960938 33.480469 28.164062 C 33.484375 28.265625 33.488281 28.359375 33.511719 28.414062 C 33.617188 28.632812 33.867188 28.699219 34.136719 28.695312 C 34.597656 28.691406 35.144531 28.457031 35.347656 28.125 C 35.90625 27.222656 36.136719 26.082031 36.398438 25.070312 C 36.425781 24.964844 36.53125 24.902344 36.636719 24.929688 C 36.742188 24.957031 36.804688 25.0625 36.777344 25.167969 C 36.503906 26.21875 36.257812 27.394531 35.679688 28.332031 C 35.574219 28.5 35.402344 28.652344 35.199219 28.773438 C 35.203125 28.78125 35.203125 28.789062 35.207031 28.796875 C 35.335938 29.332031 35.742188 29.558594 36.21875 29.601562 C 36.8125 29.65625 37.511719 29.449219 38.015625 29.15625 C 38.027344 29.144531 38.042969 29.136719 38.058594 29.128906 Z M 38.210938 29.488281 C 37.636719 29.816406 36.851562 30.050781 36.183594 29.988281 C 36.105469 29.980469 36.03125 29.972656 35.953125 29.957031 C 36.046875 30.839844 35.949219 31.691406 35.757812 32.558594 C 35.738281 32.660156 35.632812 32.726562 35.527344 32.707031 C 35.421875 32.683594 35.355469 32.578125 35.378906 32.472656 C 35.566406 31.628906 35.660156 30.800781 35.5625 29.9375 C 35.558594 29.902344 35.566406 29.867188 35.578125 29.835938 C 35.234375 29.675781 34.96875 29.390625 34.84375 28.945312 C 34.617188 29.03125 34.371094 29.082031 34.140625 29.085938 C 33.902344 29.089844 33.683594 29.042969 33.503906 28.941406 C 33.484375 28.964844 33.460938 28.988281 33.429688 29 C 33.007812 29.183594 32.824219 29.710938 32.808594 30.136719 C 32.808594 30.222656 32.75 30.296875 32.667969 30.316406 C 33.097656 30.878906 33.320312 31.558594 33.433594 32.277344 C 33.574219 33.183594 33.546875 34.144531 33.578125 34.988281 C 33.597656 35.652344 33.746094 36.605469 33.699219 37.464844 C 33.867188 37.414062 34.042969 37.378906 34.226562 37.367188 C 34.207031 37.328125 34.203125 37.28125 34.214844 37.234375 C 34.46875 36.320312 34.730469 35.195312 34.582031 34.246094 C 34.566406 34.140625 34.636719 34.039062 34.742188 34.023438 C 34.847656 34.007812 34.949219 34.078125 34.964844 34.183594 C 35.125 35.183594 34.855469 36.375 34.589844 37.339844 C 34.585938 37.351562 34.582031 37.359375 34.574219 37.371094 C 34.714844 37.382812 34.859375 37.40625 35.003906 37.441406 C 35.007812 37.425781 35.019531 37.40625 35.027344 37.390625 C 35.738281 36.402344 36.074219 35.222656 36.414062 34.066406 C 36.445312 33.964844 36.550781 33.90625 36.652344 33.9375 C 36.757812 33.964844 36.816406 34.074219 36.785156 34.175781 C 36.441406 35.351562 36.089844 36.550781 35.382812 37.5625 C 35.46875 37.59375 35.550781 37.632812 35.636719 37.671875 C 36.273438 36.585938 37.097656 35.675781 38.070312 34.871094 C 38.71875 34.332031 39.433594 33.828125 40.210938 33.476562 C 40.1875 33.425781 40.1875 33.371094 40.210938 33.316406 C 40.402344 32.898438 40.566406 32.523438 40.609375 32.054688 C 40.742188 30.628906 39.828125 28.910156 38.210938 29.488281 Z M 28.609375 22.445312 C 28.292969 22.085938 28.101562 21.671875 28.011719 21.148438 C 27.957031 20.847656 27.945312 20.554688 27.917969 20.253906 C 27.917969 20.246094 27.917969 20.21875 27.914062 20.195312 C 27.742188 20.070312 27.621094 19.941406 27.496094 19.757812 C 27.402344 19.855469 27.304688 19.945312 27.214844 20.015625 C 27.238281 20.042969 27.261719 20.070312 27.285156 20.097656 C 27.367188 20.1875 27.453125 20.273438 27.511719 20.351562 C 27.964844 20.945312 28.042969 21.585938 27.988281 22.320312 C 27.964844 22.65625 27.851562 22.996094 27.671875 23.3125 C 27.949219 23.007812 28.25 22.726562 28.558594 22.472656 C 28.574219 22.460938 28.589844 22.449219 28.609375 22.445312 Z M 27.03125 24.109375 C 27 24.136719 26.96875 24.164062 26.9375 24.191406 C 26.480469 24.570312 25.921875 24.824219 25.363281 24.855469 C 25.371094 24.863281 25.375 24.871094 25.382812 24.882812 C 25.636719 25.234375 25.863281 25.664062 26.035156 26.125 C 26.246094 25.410156 26.59375 24.726562 27.03125 24.109375 Z M 25.871094 26.925781 C 25.71875 26.246094 25.421875 25.597656 25.066406 25.109375 C 24.980469 24.992188 24.886719 24.878906 24.785156 24.777344 C 24.78125 24.773438 24.773438 24.769531 24.769531 24.761719 C 24.394531 24.390625 23.914062 24.109375 23.433594 23.902344 C 22.300781 23.402344 21.078125 23.375 19.878906 23.246094 C 19.808594 23.238281 19.753906 23.195312 19.722656 23.136719 C 19.699219 23.359375 19.648438 23.578125 19.578125 23.785156 C 20.542969 23.804688 21.542969 24.246094 22.253906 24.898438 C 22.332031 24.96875 22.335938 25.09375 22.265625 25.171875 C 22.191406 25.25 22.070312 25.257812 21.992188 25.183594 C 21.332031 24.582031 20.398438 24.171875 19.507812 24.171875 C 19.480469 24.171875 19.453125 24.164062 19.429688 24.152344 C 19.390625 24.238281 19.34375 24.320312 19.296875 24.398438 C 19.308594 24.402344 19.316406 24.40625 19.324219 24.410156 C 20.191406 24.9375 20.863281 25.710938 21.40625 26.546875 C 21.464844 26.636719 21.441406 26.757812 21.351562 26.816406 C 21.261719 26.875 21.140625 26.847656 21.082031 26.757812 C 20.570312 25.96875 19.9375 25.238281 19.121094 24.742188 C 19.109375 24.734375 19.09375 24.722656 19.085938 24.710938 C 18.800781 25.078125 18.441406 25.363281 18.03125 25.527344 C 18.03125 25.53125 18.03125 25.53125 18.035156 25.535156 C 18.222656 26.257812 18.742188 27.4375 19.363281 27.863281 C 19.453125 27.925781 19.476562 28.046875 19.414062 28.132812 C 19.355469 28.222656 19.234375 28.246094 19.144531 28.183594 C 18.460938 27.714844 17.867188 26.433594 17.660156 25.636719 C 17.410156 25.6875 17.148438 25.691406 16.882812 25.640625 C 17.042969 26.757812 17.171875 27.859375 17.238281 28.984375 C 17.402344 29.46875 17.773438 29.964844 18.25 30.40625 C 18.257812 30.414062 18.265625 30.421875 18.273438 30.429688 C 18.492188 30.628906 18.730469 30.816406 18.980469 30.988281 C 19.800781 31.542969 20.753906 31.910156 21.535156 31.84375 C 21.714844 31.828125 21.929688 31.808594 22.132812 31.757812 C 22.308594 31.714844 22.476562 31.652344 22.589844 31.535156 C 22.59375 31.527344 22.636719 31.457031 22.679688 31.386719 C 21.398438 30.40625 20.738281 28.960938 19.976562 27.554688 C 19.925781 27.460938 19.960938 27.339844 20.054688 27.289062 C 20.148438 27.238281 20.265625 27.273438 20.316406 27.367188 C 21.070312 28.757812 21.703125 30.191406 22.996094 31.140625 C 23.199219 31.089844 23.402344 31.089844 23.601562 31.082031 C 23.785156 31.074219 23.96875 31.054688 24.15625 30.9375 C 24.363281 30.808594 24.402344 30.582031 24.445312 30.398438 C 24.492188 30.199219 24.550781 30.03125 24.65625 29.949219 C 24.777344 29.851562 24.910156 29.796875 25.042969 29.746094 C 25.1875 29.695312 25.332031 29.65625 25.441406 29.527344 C 25.835938 29.042969 25.984375 28.433594 25.976562 27.804688 C 25.972656 27.519531 25.9375 27.234375 25.875 26.949219 C 25.875 26.941406 25.871094 26.933594 25.871094 26.925781 Z M 16.757812 31.109375 C 16.90625 30.574219 16.894531 29.976562 16.871094 29.433594 C 16.867188 29.300781 16.859375 29.167969 16.851562 29.035156 C 16.851562 29.035156 16.851562 29.03125 16.851562 29.027344 C 16.785156 27.886719 16.652344 26.773438 16.488281 25.640625 C 16.484375 25.605469 16.488281 25.570312 16.503906 25.535156 C 16.421875 25.507812 16.34375 25.472656 16.261719 25.433594 C 16.347656 26.589844 16.386719 27.847656 16.027344 28.945312 C 15.996094 29.050781 15.886719 29.105469 15.785156 29.070312 C 15.683594 29.039062 15.625 28.929688 15.660156 28.828125 C 16.015625 27.726562 15.953125 26.457031 15.863281 25.308594 C 15.863281 25.273438 15.871094 25.242188 15.882812 25.210938 C 15.824219 25.167969 15.765625 25.125 15.707031 25.082031 C 15.605469 24.996094 15.507812 24.90625 15.417969 24.8125 C 14.851562 26.335938 13.539062 27.285156 12.511719 28.480469 C 12.441406 28.5625 12.320312 28.574219 12.238281 28.503906 C 12.15625 28.433594 12.148438 28.3125 12.21875 28.230469 C 13.238281 27.039062 14.570312 26.113281 15.097656 24.5625 C 15.109375 24.523438 15.132812 24.492188 15.160156 24.472656 C 15.066406 24.324219 14.984375 24.167969 14.921875 24.003906 C 14.390625 24.972656 13.40625 25.722656 12.441406 26.164062 C 11.867188 26.429688 11.171875 26.644531 10.503906 26.773438 C 10.496094 26.816406 10.476562 26.851562 10.445312 26.882812 C 10.058594 27.230469 9.558594 27.828125 9.285156 28.457031 C 9.113281 28.84375 9.027344 29.242188 9.136719 29.59375 C 9.332031 30.214844 9.683594 30.621094 10.328125 30.789062 C 10.410156 30.808594 11.078125 30.902344 11.210938 30.921875 C 11.300781 30.9375 11.339844 30.980469 11.34375 30.980469 C 11.53125 31.171875 11.625 31.410156 11.722656 31.652344 C 11.800781 31.839844 11.882812 32.03125 12.070312 32.171875 C 12.246094 32.308594 12.425781 32.320312 12.613281 32.292969 C 12.746094 32.273438 12.878906 32.238281 13.015625 32.203125 C 13.816406 30.984375 14.558594 29.726562 14.742188 28.25 C 14.757812 28.144531 14.855469 28.070312 14.960938 28.082031 C 15.066406 28.09375 15.140625 28.191406 15.128906 28.296875 C 14.9375 29.820312 14.1875 31.125 13.363281 32.382812 C 13.367188 32.382812 13.367188 32.386719 13.367188 32.386719 C 13.421875 32.488281 13.480469 32.632812 13.496094 32.660156 C 13.632812 32.925781 13.789062 33.125 14.085938 33.21875 C 14.570312 33.371094 15.039062 33.238281 15.441406 32.964844 C 16.085938 32.53125 16.578125 31.75 16.757812 31.109375 Z M 7.183594 19.320312 C 7.023438 19.445312 6.882812 19.59375 6.785156 19.757812 C 6.699219 19.90625 6.671875 20.070312 6.652344 20.230469 C 6.621094 20.433594 6.597656 20.636719 6.519531 20.8125 C 6.457031 20.957031 6.320312 21.046875 6.160156 21.132812 C 6.03125 21.207031 5.882812 21.285156 5.863281 21.523438 C 5.851562 21.664062 5.914062 21.757812 5.96875 21.847656 C 6.027344 21.949219 6.078125 22.050781 6.09375 22.167969 C 6.117188 22.320312 6.074219 22.472656 6.015625 22.632812 C 5.964844 22.785156 5.882812 22.9375 5.941406 23.105469 C 5.992188 23.242188 6.101562 23.359375 6.191406 23.480469 C 6.214844 23.507812 6.234375 23.539062 6.253906 23.566406 C 7.273438 22.800781 8.558594 22.6875 9.816406 22.648438 C 9.921875 22.644531 10.011719 22.730469 10.015625 22.835938 C 10.019531 22.941406 9.933594 23.03125 9.828125 23.035156 C 8.617188 23.074219 7.375 23.164062 6.410156 23.9375 C 6.476562 24.246094 6.460938 24.570312 6.476562 24.878906 C 6.492188 25.175781 6.542969 25.460938 6.777344 25.707031 C 7.523438 26.5 8.714844 26.601562 9.742188 26.496094 C 10.5625 26.414062 11.527344 26.160156 12.277344 25.8125 C 13.238281 25.371094 14.230469 24.609375 14.683594 23.609375 C 14.703125 23.566406 14.734375 23.535156 14.773438 23.515625 C 14.738281 23.359375 14.71875 23.195312 14.707031 23.03125 C 14.058594 23.402344 13.308594 23.6875 12.578125 23.816406 C 12.023438 23.910156 11.460938 23.835938 10.910156 23.949219 C 10.804688 23.96875 10.703125 23.902344 10.683594 23.796875 C 10.660156 23.691406 10.726562 23.589844 10.832031 23.566406 C 11.386719 23.457031 11.953125 23.53125 12.511719 23.433594 C 13.238281 23.304688 13.992188 23.011719 14.625 22.628906 C 14.652344 22.613281 14.679688 22.605469 14.707031 22.601562 C 14.71875 22.425781 14.742188 22.25 14.78125 22.078125 C 14.726562 22.082031 14.671875 22.066406 14.628906 22.027344 C 14.359375 21.777344 13.855469 21.648438 13.292969 21.589844 C 12.410156 21.492188 11.386719 21.578125 10.851562 21.734375 C 10.746094 21.765625 10.640625 21.707031 10.609375 21.601562 C 10.578125 21.5 10.636719 21.390625 10.742188 21.363281 C 11.308594 21.195312 12.394531 21.101562 13.335938 21.203125 C 13.980469 21.273438 14.558594 21.445312 14.878906 21.726562 C 14.949219 21.511719 15.046875 21.304688 15.164062 21.113281 C 15.082031 21.160156 14.980469 21.140625 14.921875 21.066406 C 14.449219 20.472656 13.917969 20.332031 13.253906 20.019531 C 12.753906 19.785156 12.3125 19.476562 11.796875 19.261719 C 11.03125 18.945312 10.191406 18.582031 9.34375 18.609375 C 8.835938 18.621094 8.171875 18.761719 7.621094 19.042969 C 7.472656 19.121094 7.328125 19.207031 7.203125 19.304688 C 7.195312 19.308594 7.191406 19.316406 7.183594 19.320312 Z M 7.820312 16.253906 C 7.828125 16.722656 7.980469 17.195312 8.246094 17.570312 C 8.316406 17.675781 8.414062 17.753906 8.511719 17.828125 C 8.632812 17.921875 8.757812 18.015625 8.859375 18.128906 C 8.894531 18.164062 8.910156 18.210938 8.910156 18.253906 C 9.058594 18.234375 9.199219 18.222656 9.332031 18.21875 C 10.234375 18.195312 11.132812 18.566406 11.945312 18.902344 C 12.464844 19.121094 12.914062 19.429688 13.417969 19.667969 C 14.144531 20.007812 14.710938 20.179688 15.222656 20.824219 C 15.257812 20.863281 15.269531 20.914062 15.265625 20.964844 C 15.320312 20.886719 15.378906 20.816406 15.4375 20.746094 C 15.441406 20.742188 15.441406 20.742188 15.445312 20.738281 C 15.414062 20.71875 15.386719 20.691406 15.371094 20.652344 C 14.933594 19.640625 14.121094 18.878906 13.207031 18.265625 C 13.121094 18.207031 13.097656 18.085938 13.15625 18 C 13.214844 17.910156 13.335938 17.886719 13.425781 17.945312 C 14.316406 18.539062 15.105469 19.273438 15.59375 20.21875 C 15.605469 19.125 15.246094 18.085938 14.789062 17.101562 C 14.746094 17.007812 14.789062 16.890625 14.882812 16.84375 C 14.980469 16.800781 15.097656 16.84375 15.140625 16.941406 C 15.632812 17.996094 16.011719 19.121094 15.980469 20.300781 C 16.058594 20.253906 16.140625 20.210938 16.222656 20.171875 C 16.195312 20.136719 16.183594 20.089844 16.183594 20.042969 C 16.253906 18.660156 16.234375 17.179688 16.085938 15.808594 C 15.925781 14.367188 15.503906 12.902344 14.429688 11.878906 C 14.214844 11.671875 13.824219 11.453125 13.441406 11.367188 C 13.207031 11.316406 12.976562 11.308594 12.796875 11.398438 C 12.492188 11.554688 12.324219 11.867188 12.285156 12.195312 C 12.285156 12.277344 12.308594 12.59375 12.304688 12.664062 C 12.300781 12.785156 12.222656 12.828125 12.207031 12.839844 C 12.113281 12.894531 11.976562 12.910156 11.816406 12.886719 C 11.566406 12.847656 11.25 12.710938 11.089844 12.699219 C 10.597656 12.660156 9.996094 12.832031 9.554688 13.046875 C 9.394531 13.128906 9.300781 13.207031 9.257812 13.304688 C 9.210938 13.402344 9.214844 13.507812 9.226562 13.617188 C 9.242188 13.816406 9.277344 14.027344 9.246094 14.253906 C 10.070312 14.808594 10.726562 15.75 11.113281 16.625 C 11.15625 16.722656 11.113281 16.839844 11.015625 16.882812 C 10.917969 16.925781 10.804688 16.882812 10.757812 16.78125 C 10.390625 15.957031 9.773438 15.058594 8.992188 14.550781 C 8.847656 14.636719 8.636719 14.757812 8.453125 14.878906 C 8.332031 14.957031 8.222656 15.03125 8.175781 15.097656 C 7.9375 15.421875 7.824219 15.808594 7.820312 16.203125 C 7.824219 16.222656 7.824219 16.238281 7.820312 16.253906 Z M 22.578125 32.007812 C 22.269531 32.15625 21.875 32.203125 21.566406 32.230469 C 20.710938 32.300781 19.660156 31.917969 18.761719 31.308594 C 18.652344 31.234375 18.546875 31.15625 18.445312 31.078125 C 19.140625 34.242188 20.144531 39.480469 20.242188 42.847656 C 20.253906 43.25 20.265625 43.777344 20.28125 44.351562 C 20.535156 42.539062 20.890625 40.664062 21.070312 39.621094 C 21.769531 35.59375 22.390625 33.574219 22.578125 32.007812 Z M 30.792969 15.058594 C 30.925781 15.0625 31.046875 15.070312 31.148438 15.082031 C 32.109375 15.183594 33.535156 15.421875 34.757812 15.871094 C 35.597656 16.179688 36.347656 16.589844 36.804688 17.117188 C 36.875 17.195312 36.867188 17.320312 36.785156 17.390625 C 36.707031 17.460938 36.582031 17.453125 36.511719 17.371094 C 36.089844 16.886719 35.398438 16.519531 34.625 16.234375 C 33.429688 15.796875 32.042969 15.566406 31.109375 15.464844 C 30.753906 15.429688 30.160156 15.4375 29.636719 15.535156 C 29.308594 15.597656 29.011719 15.691406 28.828125 15.84375 C 28.535156 16.085938 28.589844 16.34375 28.609375 16.535156 C 28.621094 16.683594 28.613281 16.8125 28.558594 16.914062 C 28.425781 17.15625 28.175781 17.355469 27.972656 17.574219 C 27.835938 17.722656 27.71875 17.886719 27.746094 18.105469 C 27.839844 18.210938 27.917969 18.335938 27.972656 18.5 C 28.054688 18.734375 28.003906 18.996094 27.875 19.246094 C 27.835938 19.320312 27.789062 19.394531 27.738281 19.464844 C 27.765625 19.476562 27.792969 19.5 27.808594 19.527344 C 27.890625 19.652344 27.972656 19.742188 28.074219 19.828125 C 28.089844 19.8125 28.109375 19.804688 28.128906 19.796875 C 29.160156 19.398438 30.207031 19.167969 31.3125 19.132812 C 31.417969 19.128906 31.507812 19.214844 31.511719 19.320312 C 31.515625 19.429688 31.429688 19.519531 31.324219 19.519531 C 30.273438 19.550781 29.277344 19.773438 28.296875 20.144531 C 28.300781 20.179688 28.304688 20.210938 28.304688 20.222656 C 28.328125 20.511719 28.34375 20.792969 28.394531 21.082031 C 28.507812 21.722656 28.785156 22.171875 29.3125 22.554688 C 29.886719 22.972656 30.722656 22.988281 31.398438 22.9375 C 33.003906 22.8125 34.035156 22.234375 35.1875 21.210938 C 35.550781 20.886719 35.933594 20.613281 36.167969 20.171875 C 36.191406 20.128906 36.230469 20.09375 36.277344 20.082031 C 36.234375 19.925781 36.207031 19.765625 36.1875 19.605469 C 36.183594 19.578125 36.183594 19.550781 36.179688 19.523438 C 35.34375 20.054688 34.378906 20.316406 33.386719 20.371094 C 33.277344 20.375 33.1875 20.292969 33.183594 20.1875 C 33.175781 20.078125 33.257812 19.988281 33.363281 19.984375 C 34.316406 19.929688 35.238281 19.679688 36.03125 19.15625 C 36.074219 19.128906 36.125 19.121094 36.171875 19.128906 C 36.183594 18.785156 36.25 18.445312 36.375 18.132812 C 35.546875 17.773438 34.332031 17.6875 33.511719 18.101562 C 33.414062 18.148438 33.296875 18.109375 33.25 18.015625 C 33.203125 17.917969 33.242188 17.800781 33.335938 17.753906 C 34.253906 17.292969 35.609375 17.375 36.53125 17.777344 C 36.535156 17.777344 36.542969 17.78125 36.546875 17.785156 C 36.636719 17.628906 36.746094 17.488281 36.871094 17.359375 C 36.9375 17.285156 37.019531 17.214844 37.113281 17.148438 C 36.648438 16.503906 36.136719 15.773438 35.507812 15.273438 C 35.421875 15.207031 35.410156 15.085938 35.476562 15.003906 C 35.542969 14.917969 35.664062 14.90625 35.75 14.972656 C 36.300781 15.410156 36.769531 16.019531 37.195312 16.597656 C 37.089844 15.8125 36.734375 14.886719 36.28125 14.269531 C 36.21875 14.183594 36.238281 14.0625 36.324219 14 C 36.410156 13.933594 36.53125 13.953125 36.59375 14.039062 C 37.121094 14.757812 37.527344 15.863281 37.601562 16.75 C 37.605469 16.800781 37.589844 16.851562 37.5625 16.886719 C 37.875 16.738281 38.246094 16.617188 38.628906 16.546875 C 38.792969 16.519531 38.957031 16.496094 39.121094 16.488281 C 39.074219 16.425781 39.066406 16.332031 39.117188 16.261719 C 39.769531 15.316406 39.90625 14.007812 39.9375 12.890625 C 39.941406 12.785156 40.027344 12.699219 40.136719 12.703125 C 40.242188 12.703125 40.328125 12.792969 40.324219 12.902344 C 40.289062 14.089844 40.132812 15.480469 39.4375 16.480469 C 39.433594 16.484375 39.433594 16.484375 39.433594 16.484375 C 39.703125 16.496094 39.96875 16.535156 40.207031 16.617188 C 40.199219 16.566406 40.207031 16.515625 40.238281 16.46875 C 40.988281 15.417969 41.929688 14.148438 43.023438 13.433594 C 43.476562 13.136719 44.171875 12.773438 44.933594 12.515625 C 44.9375 12.503906 44.945312 12.496094 44.957031 12.488281 C 45.382812 12.0625 45.433594 11.269531 45.273438 10.511719 C 45.113281 9.746094 44.734375 9.007812 44.238281 8.722656 C 43.917969 8.539062 43.6875 8.632812 43.484375 8.71875 C 43.285156 8.804688 43.097656 8.882812 42.910156 8.855469 C 42.863281 8.847656 42.761719 8.824219 42.746094 8.683594 C 42.746094 8.679688 42.742188 8.65625 42.75 8.617188 C 42.757812 8.582031 42.804688 8.390625 42.804688 8.296875 C 42.808594 8.109375 42.730469 7.917969 42.625 7.769531 C 42.476562 7.566406 42.320312 7.441406 42.152344 7.382812 C 41.898438 7.292969 41.625 7.351562 41.363281 7.472656 C 41.070312 7.613281 40.785156 7.832031 40.535156 8.0625 C 40.589844 8.257812 40.617188 8.453125 40.632812 8.65625 C 40.660156 9.050781 40.609375 9.441406 40.519531 9.824219 C 40.496094 9.929688 40.390625 9.996094 40.289062 9.972656 C 40.183594 9.949219 40.117188 9.84375 40.140625 9.738281 C 40.222656 9.390625 40.273438 9.042969 40.246094 8.683594 C 40.226562 8.472656 40.199219 8.269531 40.132812 8.066406 C 40.132812 8.066406 40.132812 8.0625 40.132812 8.0625 C 40.015625 7.710938 39.789062 7.484375 39.511719 7.394531 C 39.226562 7.300781 38.890625 7.347656 38.574219 7.523438 C 37.882812 7.902344 37.386719 8.734375 37.265625 9.492188 C 37.257812 9.53125 37.238281 9.566406 37.214844 9.59375 C 37.769531 10.886719 38.074219 13.261719 38.152344 14.433594 C 38.199219 15.070312 38.207031 15.699219 38.363281 16.316406 C 38.386719 16.421875 38.324219 16.527344 38.222656 16.554688 C 38.117188 16.578125 38.011719 16.515625 37.984375 16.410156 C 37.824219 15.769531 37.8125 15.117188 37.765625 14.460938 C 37.675781 13.171875 37.332031 10.375 36.640625 9.335938 C 36.359375 8.910156 35.808594 8.40625 35.226562 8.199219 C 34.875 8.074219 34.507812 8.058594 34.191406 8.277344 C 34.003906 8.40625 33.917969 8.570312 33.835938 8.738281 C 33.769531 8.878906 33.703125 9.023438 33.605469 9.160156 C 33.570312 9.214844 33.515625 9.25 33.429688 9.242188 C 33.414062 9.242188 33.367188 9.242188 33.316406 9.195312 C 33.316406 9.195312 33.304688 9.183594 33.292969 9.167969 C 33.269531 9.140625 33.148438 8.992188 33.054688 8.9375 C 32.882812 8.835938 32.679688 8.855469 32.496094 8.914062 C 31.695312 9.167969 31.101562 10.039062 30.96875 10.832031 C 31.019531 10.855469 31.074219 10.886719 31.125 10.917969 C 31.722656 11.273438 32.3125 12.085938 32.597656 12.707031 C 32.640625 12.804688 32.597656 12.917969 32.5 12.960938 C 32.402344 13.007812 32.289062 12.964844 32.242188 12.867188 C 32.027344 12.394531 31.617188 11.796875 31.171875 11.425781 C 30.910156 11.210938 30.644531 11.0625 30.402344 11.113281 C 30.136719 11.164062 29.933594 11.449219 29.785156 12.027344 C 29.726562 12.265625 29.699219 12.511719 29.707031 12.753906 C 29.730469 13.605469 30.238281 14.34375 30.753906 14.988281 C 30.773438 15.011719 30.785156 15.035156 30.792969 15.058594 Z M 15.515625 12.621094 C 16.078125 13.5625 16.351562 14.667969 16.472656 15.765625 C 16.621094 17.148438 16.644531 18.640625 16.574219 20.035156 C 16.886719 19.9375 17.214844 19.894531 17.535156 19.921875 C 17.554688 19.726562 17.625 19.449219 17.734375 19.136719 C 18.023438 18.316406 18.546875 17.222656 18.738281 16.785156 C 18.785156 16.6875 18.898438 16.644531 18.996094 16.6875 C 19.09375 16.730469 19.136719 16.847656 19.09375 16.945312 C 18.902344 17.375 18.386719 18.453125 18.101562 19.261719 C 17.996094 19.566406 17.921875 19.824219 17.921875 19.988281 C 18.035156 20.019531 18.144531 20.0625 18.25 20.113281 C 18.730469 18.996094 19.714844 17.84375 20.71875 17.214844 C 21.226562 16.894531 21.746094 16.535156 22.304688 16.308594 C 22.402344 16.265625 22.519531 16.226562 22.644531 16.183594 C 22.640625 16.136719 22.652344 16.082031 22.683594 16.042969 C 23.023438 15.605469 23.179688 14.589844 23.109375 13.726562 C 23.066406 13.183594 22.941406 12.691406 22.671875 12.476562 C 22.207031 12.101562 22.015625 12.109375 21.726562 12.128906 C 21.578125 12.136719 21.40625 12.148438 21.179688 12.125 C 21.179688 12.125 21.03125 12.105469 21.007812 11.953125 C 21.003906 11.910156 20.976562 11.707031 20.972656 11.695312 C 20.929688 11.5 20.863281 11.304688 20.714844 11.164062 C 20.410156 10.882812 20.035156 10.917969 19.6875 11.078125 C 19.304688 11.257812 18.957031 11.582031 18.753906 11.871094 C 18.777344 11.980469 18.792969 12.09375 18.804688 12.207031 C 18.894531 13 18.78125 13.894531 18.667969 14.5 C 18.648438 14.605469 18.546875 14.671875 18.441406 14.652344 C 18.335938 14.632812 18.269531 14.535156 18.285156 14.429688 C 18.394531 13.855469 18.507812 13.003906 18.421875 12.25 C 18.367188 11.78125 18.238281 11.347656 17.964844 11.0625 C 17.503906 10.585938 16.878906 10.675781 16.382812 11.003906 C 15.871094 11.34375 15.480469 11.941406 15.539062 12.503906 C 15.542969 12.546875 15.535156 12.585938 15.515625 12.621094 Z M 48.636719 16.808594 C 48.234375 17.046875 47.8125 17.222656 47.5 17.304688 C 46.632812 17.535156 45.65625 17.332031 44.765625 17.347656 C 44.660156 17.351562 44.570312 17.265625 44.570312 17.160156 C 44.566406 17.050781 44.652344 16.964844 44.757812 16.960938 C 45.621094 16.941406 46.5625 17.152344 47.402344 16.929688 C 47.941406 16.789062 48.839844 16.351562 49.265625 15.769531 C 49.390625 15.601562 49.472656 15.417969 49.476562 15.226562 C 49.480469 15.039062 49.40625 14.84375 49.238281 14.648438 C 49.121094 14.503906 48.957031 14.453125 48.792969 14.40625 C 48.566406 14.339844 48.339844 14.28125 48.148438 14.132812 C 48.105469 14.097656 48.085938 14.058594 48.074219 14.019531 C 48.066406 13.980469 48.066406 13.9375 48.085938 13.890625 C 48.09375 13.871094 48.136719 13.824219 48.160156 13.796875 C 48.203125 13.714844 48.234375 13.628906 48.261719 13.539062 C 48.3125 13.359375 48.324219 13.171875 48.1875 13.035156 C 47.726562 12.578125 47.039062 12.492188 46.3125 12.578125 C 45.160156 12.71875 43.914062 13.3125 43.234375 13.757812 C 42.179688 14.449219 41.28125 15.679688 40.554688 16.695312 C 40.542969 16.714844 40.523438 16.730469 40.503906 16.746094 C 40.570312 16.777344 40.632812 16.816406 40.691406 16.859375 C 40.9375 17.035156 41.136719 17.234375 41.296875 17.445312 C 41.773438 16.875 42.425781 16.308594 43.105469 16.007812 C 43.203125 15.964844 43.316406 16.007812 43.359375 16.105469 C 43.402344 16.203125 43.359375 16.316406 43.261719 16.359375 C 42.617188 16.648438 41.996094 17.199219 41.554688 17.742188 C 41.539062 17.757812 41.523438 17.773438 41.503906 17.785156 C 41.59375 17.957031 41.660156 18.132812 41.707031 18.3125 C 42.402344 18.042969 43.160156 17.898438 43.90625 17.945312 C 44.011719 17.949219 44.09375 18.042969 44.089844 18.148438 C 44.082031 18.257812 43.988281 18.335938 43.882812 18.332031 C 43.167969 18.289062 42.441406 18.4375 41.777344 18.703125 C 41.789062 18.8125 41.796875 18.921875 41.796875 19.035156 C 41.820312 19.023438 41.847656 19.015625 41.875 19.015625 C 42.304688 19.015625 42.671875 19.183594 43.085938 19.265625 C 43.757812 19.402344 44.304688 19.476562 44.925781 19.78125 C 45.441406 20.035156 46.503906 20.652344 47.058594 21.175781 C 47.367188 21.289062 47.71875 21.214844 48.054688 21.050781 C 48.613281 20.777344 49.128906 20.261719 49.339844 19.832031 C 49.84375 18.816406 49.503906 17.484375 48.636719 16.808594 Z M 45.097656 27.46875 C 45.421875 27.5625 45.761719 27.574219 46.101562 27.449219 C 46.285156 27.382812 46.46875 27.246094 46.53125 27.054688 C 46.585938 26.886719 46.519531 26.738281 46.46875 26.59375 C 46.417969 26.449219 46.371094 26.300781 46.371094 26.148438 C 46.371094 26.070312 46.402344 26.023438 46.433594 25.988281 C 46.464844 25.957031 46.503906 25.933594 46.554688 25.929688 C 46.589844 25.921875 46.636719 25.925781 46.6875 25.949219 C 46.734375 25.96875 46.8125 26.027344 46.859375 26.046875 C 46.984375 26.089844 47.070312 26.078125 47.1875 26.019531 C 47.542969 25.835938 47.683594 25.4375 47.800781 25.082031 C 48.011719 24.449219 47.800781 23.824219 47.601562 23.21875 C 47.4375 22.71875 47.292969 22.128906 47 21.6875 C 46.957031 21.628906 46.90625 21.566406 46.84375 21.5 C 46.828125 21.488281 46.8125 21.476562 46.800781 21.460938 C 46.296875 20.964844 45.25 20.375 44.753906 20.128906 C 44.164062 19.839844 43.644531 19.773438 43.011719 19.648438 C 42.621094 19.570312 42.28125 19.402344 41.875 19.40625 C 41.839844 19.40625 41.808594 19.394531 41.78125 19.378906 C 41.753906 19.632812 41.699219 19.875 41.625 20.09375 C 41.5625 20.292969 41.480469 20.472656 41.382812 20.636719 C 42.242188 21.085938 42.917969 21.894531 43.339844 22.753906 C 43.386719 22.847656 43.347656 22.964844 43.25 23.011719 C 43.15625 23.058594 43.039062 23.019531 42.992188 22.925781 C 42.605469 22.136719 41.988281 21.390625 41.203125 20.980469 C 41.1875 20.972656 41.175781 20.964844 41.164062 20.953125 C 40.835938 21.363281 40.40625 21.648438 39.941406 21.820312 C 40.015625 21.832031 40.078125 21.882812 40.101562 21.960938 C 40.335938 22.78125 40.53125 23.636719 41.074219 24.3125 C 41.140625 24.398438 41.128906 24.519531 41.042969 24.585938 C 40.960938 24.652344 40.839844 24.640625 40.773438 24.554688 C 40.195312 23.835938 39.976562 22.9375 39.726562 22.066406 C 39.707031 22 39.730469 21.925781 39.777344 21.878906 C 39.582031 21.941406 39.382812 21.980469 39.183594 22.007812 C 39.117188 22.011719 39.054688 22.019531 38.988281 22.023438 C 39.136719 22.902344 39.203125 23.734375 39.347656 24.515625 C 39.570312 25.742188 39.972656 26.847656 41.1875 27.835938 C 41.539062 28.117188 42.480469 28.347656 43.316406 28.378906 C 43.84375 28.402344 44.332031 28.351562 44.578125 28.148438 C 44.691406 28.054688 44.746094 27.914062 44.777344 27.765625 C 44.214844 27.550781 43.699219 27.148438 43.292969 26.730469 C 42.886719 26.316406 42.671875 25.914062 42.492188 25.507812 C 42.328125 25.125 42.195312 24.738281 41.953125 24.332031 C 41.898438 24.238281 41.929688 24.121094 42.023438 24.066406 C 42.113281 24.011719 42.234375 24.039062 42.289062 24.132812 C 42.488281 24.472656 42.621094 24.800781 42.75 25.121094 C 42.9375 25.570312 43.128906 26.007812 43.570312 26.457031 C 43.902344 26.796875 44.3125 27.136719 44.757812 27.34375 C 44.84375 27.382812 44.929688 27.414062 45.015625 27.445312 C 45.019531 27.445312 45.027344 27.445312 45.03125 27.445312 C 45.054688 27.449219 45.078125 27.457031 45.097656 27.46875 Z M 18.433594 20.703125 C 17.664062 19.980469 16.363281 20.292969 15.726562 21.003906 C 14.832031 22.003906 14.824219 23.886719 15.949219 24.777344 C 18.339844 26.664062 20.707031 22.835938 18.433594 20.703125 Z M 40.464844 17.175781 C 40.007812 16.847656 39.332031 16.816406 38.699219 16.929688 C 38.054688 17.042969 37.453125 17.3125 37.148438 17.628906 C 36.675781 18.121094 36.496094 18.855469 36.574219 19.5625 C 36.652344 20.265625 36.988281 20.945312 37.566406 21.320312 C 37.96875 21.585938 38.550781 21.691406 39.136719 21.621094 C 40.019531 21.515625 40.917969 21 41.257812 19.972656 C 41.535156 19.125 41.511719 17.917969 40.464844 17.175781 Z M 27.421875 18.332031 C 27.222656 18.144531 26.941406 18.101562 26.679688 18.042969 C 26.351562 17.972656 26.042969 17.886719 25.855469 17.664062 C 25.832031 17.636719 25.8125 17.597656 25.808594 17.539062 C 25.808594 17.511719 25.816406 17.457031 25.839844 17.382812 C 25.875 17.289062 25.9375 17.132812 25.96875 16.96875 C 25.988281 16.855469 26.003906 16.738281 25.9375 16.65625 C 25.679688 16.359375 25.214844 16.261719 24.707031 16.25 C 23.882812 16.234375 22.941406 16.46875 22.453125 16.667969 C 21.914062 16.886719 21.414062 17.234375 20.925781 17.542969 C 19.964844 18.144531 19.023438 19.253906 18.582031 20.320312 C 18.621094 20.351562 18.660156 20.386719 18.699219 20.421875 C 18.808594 20.523438 18.910156 20.632812 19.003906 20.742188 C 19.011719 20.714844 19.03125 20.6875 19.054688 20.664062 C 19.839844 19.929688 20.828125 19.199219 21.9375 19.128906 C 22.042969 19.121094 22.136719 19.203125 22.144531 19.308594 C 22.148438 19.414062 22.070312 19.507812 21.960938 19.515625 C 20.941406 19.582031 20.042969 20.269531 19.320312 20.949219 C 19.285156 20.980469 19.242188 20.996094 19.199219 21 C 19.378906 21.265625 19.511719 21.539062 19.601562 21.820312 C 19.632812 21.75 19.710938 21.703125 19.792969 21.710938 C 20.652344 21.785156 21.507812 21.824219 22.371094 21.804688 C 22.476562 21.800781 22.566406 21.886719 22.570312 21.996094 C 22.574219 22.101562 22.488281 22.191406 22.382812 22.191406 C 21.5 22.214844 20.632812 22.171875 19.757812 22.097656 C 19.726562 22.09375 19.695312 22.082031 19.667969 22.0625 C 19.734375 22.359375 19.757812 22.652344 19.742188 22.941406 C 19.78125 22.886719 19.847656 22.851562 19.921875 22.859375 C 21.160156 22.992188 22.421875 23.03125 23.589844 23.546875 C 24.097656 23.765625 24.601562 24.0625 25.007812 24.453125 C 25.589844 24.542969 26.203125 24.296875 26.6875 23.890625 C 27.191406 23.472656 27.558594 22.878906 27.601562 22.289062 C 27.648438 21.65625 27.59375 21.101562 27.203125 20.589844 C 27.136719 20.5 27.03125 20.402344 26.945312 20.300781 C 26.917969 20.265625 26.890625 20.226562 26.863281 20.1875 C 25.910156 20.578125 24.84375 20.703125 23.835938 20.800781 C 23.726562 20.8125 23.632812 20.734375 23.621094 20.628906 C 23.613281 20.519531 23.691406 20.425781 23.796875 20.414062 C 24.855469 20.3125 25.980469 20.183594 26.960938 19.722656 C 27.148438 19.574219 27.394531 19.328125 27.53125 19.066406 C 27.609375 18.917969 27.65625 18.765625 27.605469 18.625 C 27.566406 18.507812 27.507812 18.417969 27.4375 18.347656 C 27.433594 18.34375 27.425781 18.335938 27.421875 18.332031 Z M 23.648438 40.972656 C 23.84375 40.785156 24.101562 40.632812 24.390625 40.519531 C 25.179688 40.210938 26.222656 40.160156 26.867188 40.167969 C 26.976562 40.171875 27.058594 40.257812 27.058594 40.367188 C 27.058594 40.472656 26.96875 40.558594 26.863281 40.558594 C 26.257812 40.546875 25.273438 40.59375 24.535156 40.882812 C 24.132812 41.039062 23.800781 41.265625 23.675781 41.617188 C 23.589844 41.851562 23.601562 42.132812 23.730469 42.480469 C 23.828125 42.742188 24.019531 42.960938 24.179688 43.1875 C 24.367188 43.449219 24.660156 43.789062 24.949219 43.941406 C 25.363281 44.160156 25.914062 44.175781 26.414062 44.136719 C 26.429688 44.132812 26.441406 44.132812 26.457031 44.132812 C 26.601562 44.121094 26.742188 44.105469 26.875 44.089844 C 27.1875 44.054688 27.535156 43.984375 27.898438 43.890625 C 27.910156 43.886719 27.921875 43.882812 27.9375 43.878906 C 29.386719 43.496094 31.101562 42.6875 31.910156 41.71875 C 31.976562 41.640625 32.089844 41.625 32.171875 41.683594 C 32.136719 41.59375 32.105469 41.503906 32.074219 41.414062 C 31.988281 41.167969 31.933594 40.917969 31.902344 40.671875 C 31.28125 40.929688 30.660156 41.175781 29.992188 41.273438 C 29.234375 41.386719 28.46875 41.328125 27.710938 41.429688 C 27.605469 41.445312 27.503906 41.371094 27.492188 41.261719 C 27.476562 41.15625 27.550781 41.058594 27.65625 41.046875 C 28.414062 40.941406 29.179688 41.003906 29.933594 40.890625 C 30.574219 40.796875 31.171875 40.554688 31.765625 40.308594 C 31.804688 40.292969 31.839844 40.292969 31.875 40.296875 C 31.871094 39.96875 31.914062 39.644531 32 39.339844 C 31.960938 39.355469 31.917969 39.355469 31.878906 39.34375 C 31.382812 39.183594 30.78125 38.957031 30.175781 38.84375 C 29.613281 38.742188 29.050781 38.738281 28.59375 39.027344 C 28.5 39.085938 28.382812 39.058594 28.324219 38.96875 C 28.265625 38.875 28.292969 38.757812 28.386719 38.699219 C 28.820312 38.425781 29.332031 38.359375 29.863281 38.410156 C 30.605469 38.480469 31.382812 38.777344 31.996094 38.972656 C 32.039062 38.988281 32.074219 39.015625 32.097656 39.046875 C 32.144531 38.921875 32.203125 38.800781 32.265625 38.683594 C 32.242188 38.667969 32.222656 38.652344 32.203125 38.628906 C 31.5625 37.792969 30.59375 37.347656 29.613281 37.019531 C 28.769531 36.738281 27.753906 36.457031 26.765625 36.425781 C 25.808594 36.398438 24.878906 36.601562 24.167969 37.292969 C 24.019531 37.433594 23.941406 37.585938 23.953125 37.789062 C 23.960938 37.898438 23.976562 38.007812 24.007812 38.113281 C 24.019531 38.132812 24.054688 38.183594 24.0625 38.207031 C 24.074219 38.238281 24.078125 38.269531 24.078125 38.296875 C 24.074219 38.371094 24.046875 38.4375 23.957031 38.480469 C 23.851562 38.535156 23.738281 38.558594 23.625 38.582031 C 23.515625 38.605469 23.40625 38.621094 23.320312 38.710938 C 23.234375 38.804688 23.191406 38.878906 23.191406 38.949219 C 23.1875 39.058594 23.273438 39.136719 23.328125 39.207031 C 23.371094 39.265625 23.410156 39.324219 23.429688 39.371094 C 23.457031 39.441406 23.460938 39.507812 23.441406 39.570312 C 23.414062 39.660156 23.359375 39.746094 23.300781 39.832031 C 23.234375 39.921875 23.15625 40.007812 23.117188 40.105469 C 23.007812 40.355469 23.011719 40.621094 23.152344 40.789062 C 23.238281 40.898438 23.378906 40.957031 23.566406 40.957031 C 23.59375 40.957031 23.621094 40.960938 23.648438 40.972656 Z M 26.335938 36.042969 C 26.484375 36.035156 26.628906 36.035156 26.777344 36.039062 C 27.804688 36.070312 28.859375 36.359375 29.734375 36.652344 C 30.773438 37 31.789062 37.480469 32.480469 38.351562 C 32.527344 38.285156 32.582031 38.21875 32.636719 38.160156 C 32.625 38.140625 32.613281 38.121094 32.609375 38.097656 C 32.386719 37.175781 32.265625 36.128906 31.800781 35.292969 C 31.75 35.199219 31.78125 35.082031 31.875 35.03125 C 31.96875 34.976562 32.085938 35.011719 32.140625 35.105469 C 32.597656 35.925781 32.742188 36.941406 32.953125 37.859375 C 33.003906 37.820312 33.054688 37.78125 33.109375 37.746094 C 33.167969 37.707031 33.234375 37.667969 33.296875 37.632812 C 33.386719 36.742188 33.210938 35.707031 33.1875 35.003906 C 33.160156 34.175781 33.191406 33.226562 33.050781 32.339844 C 32.917969 31.492188 32.628906 30.695312 31.960938 30.136719 C 31.628906 29.859375 31.195312 29.554688 30.738281 29.382812 C 30.316406 29.222656 29.867188 29.175781 29.46875 29.402344 C 29.390625 29.449219 29.328125 29.542969 29.261719 29.644531 C 29.179688 29.773438 29.101562 29.917969 29.023438 30.023438 C 28.921875 30.171875 28.808594 30.253906 28.710938 30.269531 C 28.664062 30.277344 28.585938 30.265625 28.492188 30.226562 C 28.398438 30.1875 28.269531 30.113281 28.144531 30.132812 C 27.316406 30.28125 26.464844 31.046875 26.339844 31.90625 C 26.792969 32.019531 27.152344 32.335938 27.46875 32.714844 C 27.761719 33.058594 28.011719 33.457031 28.28125 33.753906 C 28.351562 33.835938 28.347656 33.957031 28.265625 34.027344 C 28.1875 34.101562 28.066406 34.09375 27.992188 34.015625 C 27.722656 33.714844 27.464844 33.3125 27.171875 32.964844 C 26.90625 32.648438 26.613281 32.371094 26.234375 32.28125 C 26.222656 32.277344 26.214844 32.273438 26.203125 32.273438 C 26.179688 32.28125 26.15625 32.289062 26.128906 32.289062 C 26.09375 32.285156 26.0625 32.277344 26.035156 32.261719 C 25.859375 32.273438 25.699219 32.355469 25.558594 32.472656 C 25.242188 32.738281 25.03125 33.183594 25.027344 33.542969 C 25.019531 34.648438 25.558594 35.339844 26.335938 36.042969 Z M 35.953125 37.902344 C 36.199219 38.1875 36.519531 38.683594 36.636719 38.960938 C 36.664062 39.023438 36.691406 39.089844 36.714844 39.152344 C 36.742188 39.136719 36.773438 39.132812 36.808594 39.132812 C 37.617188 39.175781 38.507812 39.136719 39.304688 38.992188 C 39.410156 38.972656 39.507812 39.042969 39.527344 39.148438 C 39.546875 39.253906 39.476562 39.355469 39.371094 39.375 C 38.5625 39.523438 37.65625 39.5625 36.828125 39.523438 C 36.890625 39.761719 36.929688 40 36.941406 40.230469 C 38.082031 40.136719 39.320312 40.398438 40.335938 40.929688 C 40.796875 41.167969 41.347656 41.417969 41.84375 41.734375 C 42.058594 41.875 42.265625 42.03125 42.449219 42.203125 C 42.464844 42.199219 42.476562 42.199219 42.492188 42.199219 C 44.757812 42.375 46.410156 39.5625 44.378906 38.050781 C 44.34375 38.023438 44.320312 37.988281 44.308594 37.949219 C 44.214844 38 44.113281 38.050781 44.007812 38.09375 C 42.980469 38.519531 41.609375 38.5625 40.832031 38.394531 C 40.730469 38.375 40.660156 38.269531 40.683594 38.164062 C 40.707031 38.0625 40.808594 37.992188 40.914062 38.015625 C 41.636719 38.171875 42.90625 38.132812 43.859375 37.734375 C 44.453125 37.488281 44.925781 37.101562 45.015625 36.507812 C 45.078125 36.101562 44.753906 35.664062 44.371094 35.546875 C 44.09375 35.460938 43.792969 35.453125 43.515625 35.363281 C 43.503906 35.363281 43.425781 35.351562 43.394531 35.339844 C 43.351562 35.324219 43.316406 35.300781 43.296875 35.273438 C 43.242188 35.210938 43.214844 35.132812 43.273438 35.03125 C 43.359375 34.886719 43.476562 34.78125 43.597656 34.679688 C 43.71875 34.578125 43.851562 34.480469 43.894531 34.277344 C 43.953125 33.992188 43.738281 33.804688 43.460938 33.667969 C 42.949219 33.417969 42.195312 33.347656 41.878906 33.386719 C 40.527344 33.554688 39.335938 34.324219 38.316406 35.167969 C 37.371094 35.953125 36.570312 36.839844 35.953125 37.902344 Z M 36.652344 38.492188 C 36.570312 38.558594 36.449219 38.546875 36.382812 38.464844 C 36.3125 38.382812 36.324219 38.261719 36.410156 38.191406 C 37.253906 37.5 38.253906 36.8125 39.363281 36.683594 C 39.46875 36.671875 39.566406 36.75 39.578125 36.855469 C 39.589844 36.960938 39.511719 37.058594 39.40625 37.070312 C 38.371094 37.191406 37.445312 37.84375 36.652344 38.492188 Z M 36.9375 40.617188 C 36.925781 40.808594 36.894531 40.988281 36.851562 41.164062 C 37.738281 41.304688 38.511719 41.714844 39.148438 42.355469 C 39.222656 42.433594 39.222656 42.554688 39.148438 42.632812 C 39.070312 42.707031 38.949219 42.707031 38.871094 42.628906 C 38.289062 42.042969 37.585938 41.667969 36.773438 41.546875 C 36.757812 41.542969 36.746094 41.539062 36.730469 41.535156 C 36.652344 41.738281 36.546875 41.925781 36.425781 42.097656 C 36.457031 42.109375 36.484375 42.128906 36.507812 42.152344 C 36.878906 42.589844 37.277344 43.007812 37.65625 43.445312 C 37.722656 43.523438 37.714844 43.648438 37.632812 43.71875 C 37.554688 43.789062 37.429688 43.777344 37.359375 43.699219 C 36.984375 43.261719 36.585938 42.84375 36.210938 42.40625 C 36.207031 42.398438 36.199219 42.390625 36.195312 42.378906 C 36.050781 42.53125 35.886719 42.664062 35.714844 42.769531 C 35.722656 42.785156 35.734375 42.804688 35.738281 42.824219 C 35.964844 43.640625 36.167969 44.40625 36.773438 45.03125 C 36.851562 45.105469 36.847656 45.230469 36.769531 45.304688 C 36.695312 45.378906 36.570312 45.378906 36.496094 45.300781 C 35.84375 44.628906 35.609375 43.8125 35.367188 42.941406 C 35.066406 43.0625 34.730469 43.117188 34.378906 43.09375 C 34.402344 43.125 34.421875 43.164062 34.425781 43.207031 C 34.53125 44.296875 34.820312 45.398438 35.3125 46.386719 C 35.316406 46.394531 35.320312 46.40625 35.324219 46.414062 C 35.804688 47.363281 36.472656 48.207031 37.351562 48.832031 C 37.746094 49.113281 38.457031 49.429688 38.929688 49.484375 C 39.234375 49.515625 39.585938 49.457031 39.851562 49.296875 C 40.085938 49.152344 40.246094 48.925781 40.203125 48.601562 C 40.203125 48.59375 40.199219 48.582031 40.199219 48.574219 C 40.195312 48.570312 40.1875 48.566406 40.179688 48.566406 C 39.417969 48.195312 38.667969 47.410156 38.394531 47.015625 C 38.066406 46.539062 37.5625 45.972656 37.351562 45.433594 C 37.3125 45.332031 37.359375 45.21875 37.460938 45.179688 C 37.558594 45.140625 37.671875 45.191406 37.710938 45.289062 C 37.914062 45.804688 38.402344 46.339844 38.714844 46.796875 C 38.964844 47.160156 39.652344 47.878906 40.351562 48.214844 C 40.757812 48.414062 41.167969 48.488281 41.472656 48.199219 C 41.648438 48.027344 41.679688 47.855469 41.714844 47.679688 C 41.746094 47.523438 41.78125 47.359375 41.863281 47.1875 C 41.90625 47.101562 42.125 47.085938 42.125 47.085938 C 42.125 47.085938 42.101562 47.082031 42.089844 47.082031 C 42.367188 47.070312 42.664062 46.964844 42.816406 46.71875 C 43.042969 46.355469 43.125 45.878906 43.128906 45.382812 C 43.132812 44.601562 42.929688 43.769531 42.691406 43.199219 C 42.488281 42.710938 42.085938 42.355469 41.632812 42.0625 C 41.148438 41.75 40.609375 41.507812 40.15625 41.273438 C 39.203125 40.777344 38.039062 40.527344 36.964844 40.617188 C 36.953125 40.617188 36.945312 40.617188 36.9375 40.617188 Z M 34.121094 43.066406 C 33.894531 43.027344 33.65625 42.953125 33.417969 42.84375 C 33.453125 42.875 33.476562 42.917969 33.480469 42.96875 C 33.574219 43.980469 33.363281 44.914062 33.207031 45.90625 C 33.191406 46.011719 33.089844 46.082031 32.984375 46.066406 C 32.878906 46.050781 32.808594 45.949219 32.824219 45.84375 C 32.976562 44.886719 33.183594 43.984375 33.09375 43.003906 C 33.082031 42.898438 33.160156 42.804688 33.269531 42.792969 C 33.285156 42.792969 33.300781 42.792969 33.3125 42.792969 C 33.195312 42.734375 33.074219 42.664062 32.957031 42.585938 C 32.953125 42.609375 32.945312 42.628906 32.9375 42.648438 C 32.375 43.707031 31.394531 44.335938 30.644531 45.234375 C 30.574219 45.316406 30.453125 45.324219 30.371094 45.257812 C 30.289062 45.1875 30.277344 45.066406 30.347656 44.984375 C 31.078125 44.109375 32.046875 43.5 32.59375 42.46875 C 32.613281 42.429688 32.640625 42.402344 32.675781 42.386719 C 32.640625 42.355469 32.601562 42.328125 32.566406 42.296875 C 32.425781 42.179688 32.328125 42.03125 32.253906 41.871094 C 32.246094 41.90625 32.234375 41.9375 32.207031 41.964844 C 31.367188 42.96875 29.609375 43.820312 28.097656 44.234375 C 28.03125 44.359375 27.957031 44.480469 27.875 44.601562 C 27.863281 44.628906 27.84375 44.65625 27.820312 44.679688 C 27.625 44.960938 27.40625 45.246094 27.21875 45.546875 C 26.945312 45.992188 26.742188 46.46875 26.84375 47.027344 C 26.972656 47.742188 27.265625 48.3125 27.933594 48.636719 C 28.136719 48.734375 28.339844 48.753906 28.5625 48.738281 C 28.585938 48.738281 28.828125 48.71875 28.886719 48.730469 C 28.976562 48.75 29.015625 48.808594 29.03125 48.84375 C 29.109375 49.019531 29.121094 49.183594 29.128906 49.347656 C 29.136719 49.515625 29.140625 49.679688 29.316406 49.84375 C 29.628906 50.136719 29.976562 50.003906 30.292969 49.746094 C 30.3125 49.730469 30.332031 49.714844 30.351562 49.695312 C 30.351562 49.695312 30.355469 49.695312 30.355469 49.691406 C 30.90625 49.207031 31.375 48.355469 31.53125 48.003906 C 31.839844 47.3125 31.910156 46.53125 32.019531 45.792969 C 32.035156 45.683594 32.132812 45.613281 32.242188 45.628906 C 32.347656 45.644531 32.417969 45.742188 32.402344 45.847656 C 32.289062 46.621094 32.207031 47.441406 31.886719 48.160156 C 31.722656 48.523438 31.253906 49.375 30.695312 49.910156 C 30.820312 50.398438 31.21875 50.636719 31.675781 50.699219 C 32.199219 50.769531 32.800781 50.621094 33.214844 50.335938 C 34.566406 49.414062 35.097656 48.09375 34.957031 46.539062 C 34.449219 45.515625 34.148438 44.375 34.039062 43.242188 C 34.03125 43.171875 34.066406 43.105469 34.121094 43.066406 Z M 41.414062 33.074219 C 41.550781 33.042969 41.6875 33.019531 41.832031 33.003906 C 42.054688 32.976562 42.472656 32.996094 42.898438 33.082031 C 44.625 31.054688 47.003906 30.09375 49.496094 29.324219 C 49.597656 29.292969 49.707031 29.351562 49.738281 29.453125 C 49.769531 29.554688 49.714844 29.664062 49.609375 29.695312 C 47.25 30.425781 44.984375 31.320312 43.316406 33.191406 C 43.425781 33.230469 43.53125 33.273438 43.628906 33.320312 C 44.082031 33.542969 44.367188 33.886719 44.273438 34.355469 C 44.21875 34.617188 44.082031 34.773438 43.925781 34.910156 C 43.878906 34.953125 43.828125 34.992188 43.777344 35.035156 C 43.996094 35.085938 44.222656 35.105469 44.4375 35.164062 C 46.210938 34.8125 47.664062 33.757812 49.066406 32.609375 C 50.515625 31.421875 51.914062 30.128906 53.535156 29.359375 C 55.066406 28.632812 57.015625 28.792969 58.753906 28.875 C 58.390625 28.625 58.082031 28.292969 57.722656 28.035156 C 56.339844 27.03125 54.925781 26.664062 53.226562 26.660156 C 48.742188 26.65625 43.476562 28.859375 41.414062 33.074219 Z M 23.859375 56.914062 C 25.953125 57.5 27.023438 56.675781 28.1875 55.707031 C 29.039062 54.996094 29.933594 54.210938 31.261719 53.777344 C 32.027344 53.527344 32.769531 53.210938 33.539062 52.980469 C 33.136719 52.996094 32.75 53.007812 32.429688 52.992188 C 30.78125 52.902344 29.175781 52.699219 27.78125 52.816406 C 26.773438 52.898438 25.878906 53.152344 25.171875 53.761719 C 24.546875 54.304688 24.070312 55.121094 23.78125 56.335938 C 24.285156 55.675781 24.976562 55.230469 25.746094 54.910156 C 26.703125 54.511719 27.785156 54.3125 28.773438 54.136719 C 28.878906 54.117188 28.980469 54.1875 29 54.292969 C 29.019531 54.398438 28.949219 54.5 28.84375 54.519531 C 27.878906 54.691406 26.824219 54.882812 25.894531 55.269531 C 25.0625 55.613281 24.328125 56.117188 23.859375 56.914062 Z M 35.597656 38.089844 L 35.597656 38.085938 C 34.707031 37.613281 33.914062 37.675781 33.324219 38.070312 C 32.417969 38.671875 32 40.019531 32.441406 41.285156 C 32.53125 41.539062 32.601562 41.820312 32.8125 41.996094 C 33.71875 42.753906 34.625 42.863281 35.324219 42.539062 C 36.375 42.050781 36.925781 40.621094 36.28125 39.113281 C 36.164062 38.835938 35.824219 38.316406 35.597656 38.089844 Z M 18.945312 56.460938 C 18.898438 55.984375 18.75 55.417969 18.554688 54.832031 C 18.070312 53.375 17.289062 51.789062 16.945312 50.988281 C 15.503906 47.640625 13.261719 44.636719 10.964844 41.8125 C 10.316406 41.015625 9.65625 40 8.84375 39.285156 C 8.863281 39.328125 8.882812 39.371094 8.902344 39.414062 C 9.105469 39.886719 9.304688 40.363281 9.507812 40.835938 C 10.195312 42.449219 10.855469 44.097656 11.371094 45.773438 C 11.9375 47.617188 12.628906 49.394531 13.414062 51.152344 C 14.167969 52.84375 15.117188 54.789062 16.730469 55.8125 C 17.433594 56.253906 17.949219 56.429688 18.378906 56.613281 C 18.46875 56.652344 18.554688 56.6875 18.640625 56.730469 C 17.574219 54.601562 14.410156 49.40625 13.707031 48.667969 C 13.636719 48.589844 13.636719 48.464844 13.714844 48.390625 C 13.792969 48.320312 13.917969 48.320312 13.992188 48.398438 C 14.691406 49.136719 17.816406 54.257812 18.945312 56.476562 C 18.945312 56.472656 18.945312 56.46875 18.945312 56.460938 Z M 18.578125 42.503906 C 18.550781 42.191406 18.519531 41.882812 18.488281 41.570312 C 18.109375 38.621094 16.292969 36.429688 13.855469 34.820312 C 13.441406 34.546875 12.863281 34.054688 12.265625 33.742188 C 12.019531 33.613281 11.769531 33.511719 11.53125 33.480469 C 11.773438 33.792969 12.070312 34.054688 12.308594 34.371094 C 12.859375 35.097656 13.304688 35.984375 13.695312 36.804688 C 14.523438 38.554688 15.277344 40.371094 16.398438 41.957031 C 16.71875 42.410156 17.175781 42.789062 17.640625 43.15625 C 17.972656 43.421875 18.3125 43.683594 18.617188 43.960938 C 18.484375 42.9375 17.957031 42.070312 17.367188 41.226562 C 16.722656 40.304688 16.003906 39.417969 15.578125 38.417969 C 15.539062 38.316406 15.582031 38.203125 15.683594 38.160156 C 15.78125 38.121094 15.894531 38.167969 15.9375 38.265625 C 16.351562 39.242188 17.058594 40.105469 17.683594 41.003906 C 18.023438 41.488281 18.339844 41.980469 18.578125 42.503906 Z M 18.578125 42.503906 " fill-opacity="1" fill-rule="evenodd"/></g></svg>